<?xml version="1.0" encoding="iso-8859-1"?>
<!-- Uploaded to: SVG Repo, www.svgrepo.com, Generator: SVG Repo Mixer Tools -->
<svg version="1.1" id="Layer_1" xmlns="http://www.w3.org/2000/svg" xmlns:xlink="http://www.w3.org/1999/xlink" 
	 viewBox="0 0 512 512" xml:space="preserve">
<polygon style="fill:#A2B1B7;" points="78.979,193.362 89.872,247.83 122.553,247.83 122.553,193.362 "/>
<rect x="57.191" y="193.362" style="fill:#C4D3D9;" width="32.681" height="54.468"/>
<rect x="449.362" y="117.106" style="fill:#FFF296;" width="54.468" height="76.255"/>
<path style="fill:#E0315B;" d="M438.468,73.532h-32.681l32.681,290.497l32.681-7.263V106.213
	C471.149,88.238,456.443,73.532,438.468,73.532z"/>
<path style="fill:#F5849F;" d="M73.532,73.532c-17.974,0-32.681,14.706-32.681,32.681v108.936h49.021l21.787-70.809L89.872,73.532
	H73.532z"/>
<g>
	<path style="fill:#EA5A7D;" d="M405.787,73.532H89.872v141.617h49.021l16.34-43.574h157.957v217.872l125.277-25.418V106.213
		C438.468,88.238,423.762,73.532,405.787,73.532z"/>
	<path style="fill:#EA5A7D;" d="M438.468,356.766l-32.681,98.043h32.681c17.974,0,32.681-14.706,32.681-32.681v-65.362H438.468z"/>
</g>
<path style="fill:#F5849F;" d="M438.468,422.128v-65.362H8.17v65.362c0,17.974,14.706,32.681,32.681,32.681h364.936
	C423.762,454.809,438.468,440.102,438.468,422.128z"/>
<path style="fill:#FFF296;" d="M392.17,171.574l-10.894,27.234l10.894,27.234c15.041,0,27.234-12.193,27.234-27.234
	C419.404,183.768,407.211,171.574,392.17,171.574z"/>
<path style="fill:#FFFFFF;" d="M364.936,198.809c0,15.041,12.193,27.234,27.234,27.234v-54.468
	C377.129,171.574,364.936,183.768,364.936,198.809z"/>
<path style="fill:#FFF296;" d="M392.17,269.617l-10.894,27.234l10.894,27.234c15.041,0,27.234-12.193,27.234-27.234
	C419.404,281.81,407.211,269.617,392.17,269.617z"/>
<path style="fill:#FFFFFF;" d="M364.936,296.851c0,15.041,12.193,27.234,27.234,27.234v-54.468
	C377.129,269.617,364.936,281.81,364.936,296.851z"/>
<line style="fill:none;stroke:#FFFFFF;stroke-width:15;stroke-linecap:round;stroke-linejoin:round;stroke-miterlimit:10;" x1="138.894" y1="138.894" x2="122.553" y2="138.894"/>
<path d="M503.83,108.936h-24.511v-2.723c0-19.727-14.057-36.233-32.681-40.029V40.851c0-4.513-3.658-8.17-8.17-8.17
	c-4.512,0-8.17,3.657-8.17,8.17v24.511H130.723v-8.17c0-4.513-3.658-8.17-8.17-8.17c-4.512,0-8.17,3.657-8.17,8.17v8.17H73.532
	c-22.526,0-40.851,18.325-40.851,40.851v108.936c0,4.513,3.658,8.17,8.17,8.17h8.17v24.511c0,4.513,3.658,8.17,8.17,8.17h24.511
	v38.115h-2.723c-4.512,0-8.17,3.657-8.17,8.17c0,4.513,3.658,8.17,8.17,8.17h2.723v38.141H8.17c-4.512,0-8.17,3.657-8.17,8.17
	v65.362c0,19.727,14.057,36.233,32.681,40.029v8.993c0,4.513,3.658,8.17,8.17,8.17s8.17-3.657,8.17-8.17v-8.17h381.277v8.17
	c0,4.513,3.658,8.17,8.17,8.17c4.512,0,8.17-3.657,8.17-8.17v-8.993c18.624-3.795,32.681-20.301,32.681-40.029V201.532h24.511
	c4.512,0,8.17-3.657,8.17-8.17v-76.255C512,112.593,508.342,108.936,503.83,108.936z M65.362,223.319h49.021v16.34H65.362V223.319z
	 M98.043,310.455h24.511c4.512,0,8.17-3.657,8.17-8.17c0-4.513-3.658-8.17-8.17-8.17H98.043V256h24.511
	c4.512,0,8.17-3.657,8.17-8.17v-24.511h8.17c3.405,0,6.454-2.112,7.65-5.301l14.353-38.274h144.125v168.851H98.043V310.455z
	 M462.979,422.128c0,13.515-10.995,24.511-24.511,24.511H40.851c-13.516,0-24.511-10.996-24.511-24.511v-57.191h422.128
	c4.512,0,8.17-3.657,8.17-8.17c0-4.513-3.658-8.17-8.17-8.17H321.362V171.574c0-4.513-3.658-8.17-8.17-8.17H155.234
	c-3.405,0-6.454,2.112-7.65,5.301l-14.353,38.274h-84.21V106.213c0-13.515,10.995-24.511,24.511-24.511h8.17v100.766
	c0,4.513,3.658,8.17,8.17,8.17s8.17-3.657,8.17-8.17V81.702h340.426c13.516,0,24.511,10.996,24.511,24.511V422.128z M495.66,185.191
	h-16.34v-59.915h16.34V185.191z"/>
<path d="M392.17,261.447c-19.521,0-35.404,15.882-35.404,35.404c0,19.522,15.883,35.404,35.404,35.404
	c19.521,0,35.404-15.882,35.404-35.404C427.574,277.329,411.692,261.447,392.17,261.447z M392.17,315.915
	c-10.511,0-19.064-8.553-19.064-19.064c0-10.511,8.553-19.064,19.064-19.064s19.064,8.553,19.064,19.064
	C411.234,307.362,402.681,315.915,392.17,315.915z"/>
<path d="M392.17,163.404c-19.521,0-35.404,15.882-35.404,35.404s15.883,35.404,35.404,35.404c19.521,0,35.404-15.882,35.404-35.404
	S411.692,163.404,392.17,163.404z M392.17,217.872c-10.511,0-19.064-8.553-19.064-19.064c0-10.511,8.553-19.064,19.064-19.064
	s19.064,8.553,19.064,19.064C411.234,209.32,402.681,217.872,392.17,217.872z"/>
</svg>